<?xml version="1.0" encoding="UTF-8" standalone="no"?>
<!DOCTYPE svg PUBLIC "-//W3C//DTD SVG 1.1//EN" "http://www.w3.org/Graphics/SVG/1.1/DTD/svg11.dtd">
<svg width="100%" height="100%" viewBox="0 0 512 512" version="1.1" xmlns="http://www.w3.org/2000/svg" xmlns:xlink="http://www.w3.org/1999/xlink" xml:space="preserve" xmlns:serif="http://www.serif.com/" style="fill-rule:evenodd;clip-rule:evenodd;stroke-linejoin:round;stroke-miterlimit:2;">
    <g id="Outline">
        <path d="M16,456L5,476L15.637,506.687L494,505L508,483.333L503,462L490,453" style="fill:rgb(180,180,180);"/>
        <path d="M9,186L71.244,4.749L437,8L503,191L486.961,206.819L26.207,207.523" style="fill:rgb(160,77,21);"/>
        <path d="M39,451L477,452L476,207.523L37,207.523" style="fill:rgb(226,197,178);"/>
        <path d="M311,452L429,453L424,294L388,265L360,261L334,270L312,301" style="fill:rgb(73,54,49);"/>
        <path d="M284,385L424,301L444,314L452,337L321,419L306,423L289,412L284,385Z" style="fill:rgb(116,86,79);"/>
        <g transform="matrix(0.945924,-0.324389,0.324389,0.945924,-313.529,117.951)">
            <path d="M284,385L442.621,305.272L462.918,320.488L466.459,347.244L321,419L306,423L289,412L284,385Z" style="fill:rgb(116,86,79);"/>
        </g>
        <g transform="matrix(-0.328036,-0.944665,0.944665,-0.328036,-61.3666,814.591)">
            <path d="M284,385L442.621,305.272L462.918,320.488L466.459,347.244L321,419L306,423L289,412L284,385Z" style="fill:rgb(116,86,79);"/>
        </g>
        <g id="Outline-2">
            <path d="M485.333,448L480,448L480,213.333L481.877,213.333C481.88,213.333 481.883,213.333 481.886,213.333C496.515,213.333 508.553,201.296 508.553,186.667C508.553,183.651 508.041,180.658 507.04,177.813L450.741,17.813C446.996,7.171 436.883,0.005 425.6,0L86.4,0C75.117,0.005 65.004,7.171 61.259,17.813L4.96,177.813C3.959,180.658 3.447,183.651 3.447,186.667C3.447,201.296 15.485,213.333 30.114,213.333C30.117,213.333 30.12,213.333 30.123,213.333L32,213.333L32,448L26.667,448C12.038,448 -0,460.038 0,474.667L0,485.333C0,499.962 12.038,512 26.667,512L485.333,512C499.962,512 512,499.962 512,485.333L512,474.667C512,460.038 499.962,448 485.333,448ZM425.6,10.667C432.367,10.663 438.438,14.953 440.693,21.333L496.981,181.333C497.587,183.046 497.896,184.85 497.896,186.667C497.896,195.444 490.674,202.667 481.896,202.667C481.894,202.667 481.891,202.667 481.888,202.667L388.48,202.667L354.709,10.667L425.6,10.667ZM315.904,415.808C308.297,420.16 298.46,417.524 294.048,409.952L288.715,400.715C284.326,393.113 286.97,383.247 294.571,378.859L416.661,308.373C424.266,304.029 434.095,306.663 438.507,314.229L443.84,323.467C445.249,325.902 445.991,328.666 445.991,331.479C445.991,337.187 442.937,342.478 437.995,345.333L315.904,415.808ZM421.333,367.253L421.333,448L314.667,448L314.667,427.733C316.967,427.13 319.177,426.222 321.237,425.035L421.333,367.253ZM314.667,354.944L314.667,320C314.667,319.963 314.667,319.925 314.667,319.888C314.667,290.694 338.689,266.672 367.883,266.672C388.389,266.672 407.145,278.524 415.947,297.045C414.343,297.608 412.796,298.323 411.328,299.179L314.667,354.944ZM432,361.099L443.328,354.56C455.996,347.245 460.402,330.802 453.088,318.133L447.755,308.896C443.426,301.348 435.638,296.405 426.965,295.701C417.18,271.73 393.742,255.982 367.85,255.982C332.823,255.982 304,284.806 304,319.833C304,319.889 304,319.944 304,320L304,361.099L289.237,369.632C276.569,376.947 272.163,393.39 279.477,406.059L284.811,415.296C288.781,422.392 295.933,427.16 304.011,428.096L304.011,448L42.667,448L42.667,213.333L469.333,213.333L469.333,448L432,448L432,361.099ZM261.333,10.667L343.872,10.667L377.6,202.667L261.333,202.667L261.333,10.667ZM250.667,10.667L250.667,202.667L134.4,202.667L168.128,10.667L250.667,10.667ZM30.123,202.667C30.12,202.667 30.117,202.667 30.114,202.667C21.337,202.667 14.114,195.444 14.114,186.667C14.114,184.85 14.424,183.046 15.029,181.333L71.317,21.333C73.572,14.957 79.637,10.668 86.4,10.667L157.28,10.667L123.52,202.667L30.123,202.667ZM501.333,485.333C501.333,494.111 494.111,501.333 485.333,501.333L26.667,501.333C17.889,501.333 10.667,494.111 10.667,485.333L10.667,474.667C10.667,465.889 17.889,458.667 26.667,458.667L485.333,458.667C494.111,458.667 501.333,465.889 501.333,474.667L501.333,485.333Z" style="fill-rule:nonzero;"/>
            <path d="M236.875,272L229.333,264.459C224.334,259.458 217.546,256.646 210.475,256.646C203.404,256.646 196.615,259.458 191.616,264.459L160,296.085L128.384,264.459C123.385,259.458 116.596,256.646 109.525,256.646C102.454,256.646 95.666,259.458 90.667,264.459L83.125,272C72.847,282.372 72.847,299.335 83.125,309.707L114.752,341.333L83.125,372.96C72.847,383.332 72.847,400.295 83.125,410.667L90.667,418.208C95.666,423.209 102.454,426.021 109.525,426.021C116.596,426.021 123.385,423.209 128.384,418.208L160,386.581L191.616,418.208C196.615,423.209 203.404,426.021 210.475,426.021C217.546,426.021 224.334,423.209 229.333,418.208L236.875,410.667C247.153,400.295 247.153,383.332 236.875,372.96L205.259,341.333L236.875,309.707C247.153,299.335 247.153,282.372 236.875,272ZM90.667,302.165C84.502,295.941 84.502,285.765 90.667,279.541L98.208,272C104.507,265.997 114.543,265.997 120.843,272L152.459,303.627L122.293,333.792L90.667,302.165ZM229.333,380.501C235.498,386.725 235.498,396.901 229.333,403.125L221.792,410.667C215.493,416.67 205.457,416.67 199.157,410.667L167.541,379.04L197.707,348.875L229.333,380.501ZM229.333,302.165L120.843,410.667C117.843,413.668 113.769,415.357 109.525,415.357C105.282,415.357 101.208,413.668 98.208,410.667L90.667,403.125C84.502,396.901 84.502,386.725 90.667,380.501L199.157,272C202.157,268.998 206.231,267.31 210.475,267.31C214.718,267.31 218.792,268.998 221.792,272L229.333,279.541C235.498,285.765 235.498,295.941 229.333,302.165Z" style="fill-rule:nonzero;"/>
        </g>
    </g>
</svg>
